<?xml version="1.0" encoding="utf-8"?>
<svg viewBox="0 0 500 500" xmlns="http://www.w3.org/2000/svg">
  <defs>
    <clipPath id="clippath1" transform="">
      <path d="M 0 1024 L 1024 1024 L 1024 0 L 0 0 Z" style="fill: none; clip-rule: nonzero;"/>
    </clipPath>
  </defs>
  <g transform="matrix(0.401016, 0, 0, 0.329445, -45.512062, -24.098625)" style="">
    <polygon points="273.32 38.397 273.19 38.099 272.72 38.397" fill="none"/>
    <path d="m202.22 529.02l0.717 12.761 7.628 9.975-5.204 37.384c-1.171 3.525-2.5 6.346-4.021 9.254h989.15l-0.034-80h-990.37l2.135 10.626z" fill="#fff"/>
    <path d="m272.65 1158.4h996.46c0.117-0.15 0.208-0.267 0.244-0.322 1.328-1.991 3.498-3.864 5.114-5.481 2.72-4.092 5.627-8.215 9.12-11.574l-0.232-11.16-38.247-51.464h-1114.3l141.89 80.001z" fill="#fff"/>
    <path d="m250.31 52.837l-4.667-6.92-97.258 37.563-45.04 22.826-65.137 65.78 5.386 3.685c2.179 1.935 4.079 3.672 5.204 6.2 0.261 0.585 3.055 5.177 1.884 5.572 0 0.788-1.345 1.203-1.345 2.247 0 1.221 0.755 1.756 1.345 2.695 1.014 1.609 3.32 1.992 3.32 3.954 0 4.109 5.938 8.268-3.409 8.268l-0.09 0.09c0 3.444 1.136 5.392 4.755 5.392 0.693 1.038 2.645 1.583 3.588 2.786l3.859 2.067-1.615 10.334-4.755 2.966-0.359 3.954 20.367-4.044 0.27 8.896c-0.142 0.426-2.738-0.179-3.23-0.179-1.224 0-2.966-0.12-4.038 0.359-1.055 0.471-4.464 4.579-1.794 5.122 0.785 0.16 4.362 0.057 4.396 0.36 0.231 2.049-0.403 3.88-2.512 4.403v0.18c3.234 0 4.621-2.427 6.819-2.606 3.761-0.307 3.895 1.473 6.011 3.594 4.393 4.404 8.613 5.946 8.613 12.581 0.762 0 2.852-4.93 3.499-5.751 2.168-2.748 3.535-1.887 6.819-1.887 5.613 0 7.963 12.622 15.522 10.424l-1.077 18.871c0 4.256-0.95 10.784-6.281 10.784-1.514 0-3.134-0.359-4.396-0.359 0 2.751 5.966 6.937 3.947 9.975-0.811 1.222-2.001 1.156-2.423 2.247-0.545 1.406-0.142 5.153-0.269 6.739 1.859 5.133 6.557 8.268 7.985 14.019 0.865 3.486-0.491 16.567 1.256 18.512 2.471 2.75 5.261 2.549 7.536 6.111 0.414 0.648 2.978-0.695 4.307-0.629 5.148 0.255 8.245 9.184 6.998 13.48 0.433 3.262 1.679 7.248 3.499 9.885 2.218 3.216 1.077 5.22 1.077 8.987 0 2.58 1.228 3.117 1.525 4.313 4.327 1.072 6.374 5.249 7.357 9.166 0.173 0.043 0.227 0.097 0.269 0.27 1.836 0 4.365 0.809 6.46 0.809 2.086 0 1.357-2.156 3.589-1.348 1.833 0.663 6.317 5.253 6.819 7.279 0.378 0.054 1.787 0.326 1.884 0.719 3.592 0.905 3.497 17.308 1.525 20.129l12.469 19.674c2.098 1.454 4.859 2.241 5.204-1.168 0.283-2.806 3.164-0.026 3.768 0.719 1.468 1.813 1.795 8.307 1.795 10.784 5.17 1.282 3.581 4.029 5.473 8.268 1.068 2.395-4.859 7.168-6.462 8.987l9.529 47.426h990.37l-0.049-115.54 56.149-55.593 91.543-133.46c-1.808 1.267-3.223-0.195-5.577 0.425-8.367 2.205-12.211-1.11-20.635-2.876-5.753-1.206-8.31 4.52-14.355 2.337-3.51-1.268-11.097-0.809-14.983-0.809-2.802 0-5.216 3.747-7.357 2.786-4.223-1.897-3.507-0.704-7.716 0-6.054 1.013-5.829 1.822-10.946 0.09-4.069-1.377-6.494 3.739-9.6 3.146-8.543-1.634-11.809-4.598-20.277-0.36-3.746 1.875-9.677-2.698-12.65-4.763-4.28-2.973-9.871-8.716-13.459-12.581-2.06-2.22-1.641-5.668-4.575-6.92-5.473-2.337-6.664-4.95-11.394-8.088-2.248-1.491-5.195-1.659-7.627-3.055-2.481-1.424-3.824-4.041-5.114-6.38-2.594-4.704-3.468-10.164-9.062-11.772-3.357-0.965-5.33-1.737-6.759-3.384l-5.62 0.777-3.41 5.212-6.281 0.18-78.775 33.429-3.948-0.18-0.897 2.876-51.5 26.6-15.432 32.171-31.402 28.936-4.577 14.918-7.716-1.528c-1.67-2.097-1.535-6.213-3.32-7.998-1.162-1.161-3.611 0.809-5.114 0.809-6.028 0-12.615-2.332-19.021-1.348-4.082 0.627-1.705-3.852-1.705-6.111-2.095 0-3.403 2.473-5.025 3.595-1.606 1.112-5.172 0.629-7.177 0.629-4.271 0-11.182 1.35-12.292-3.146-2.857 0-12.959-3.777-15.163-5.751-7.834-7.02-3.187 8.326-7.985 0.539-0.747-1.213-3.353 2.179-4.576 1.797-1.774-0.554-2.016-1.528-4.396-1.528-5.771 0-6.635 2.873-13.817 1.977l-28.98-8.807c-3.331-1.672-2.849-3.196-4.487-5.482-1.198-1.67-1.936-4.171-4.307-3.774-0.137 0.969-1.403 3.402-1.794 4.493-0.421 1.172-2.831 0.718-3.768 0.718-2.84 0-6.49-0.19-9.241-0.718-2.709-0.52-2.61-1.309-4.127-3.415-1.164-1.617-3.301-4.547-4.217-6.38-0.614 0-3.881 0.99-3.947 1.258-0.384 0.064-0.013 5e-3 -0.27 0.09-0.289 1.167 1.231 2.464 1.705 3.594l-10.587 3.235-44.681-2.516-8.569 2.336-12.201-9.526-7.312-9.48-5.652-2.741-135.84-89.595c-5.41-1.697-6.045-7.451-10.408-10.155-1.242-0.77-2.646-0.626-3.768-1.437-1.396-1.008-1.815-2.344-2.781-3.685-1.796-2.495-3.757 0.526-5.742 0-1.153-0.306-2.722-1.97-3.409-2.067-0.149-1.056-4.72-1.437-5.652-1.618l-17.493-7.549-28.621 0.09c-2.183-0.329-3.574-1.155-5.518-1.842-1.89-0.669-4.877 0.446-6.683 1.033-1.293 0.421-2.627 0.585-3.951 0.809l-88.196-1.797-16.777-15.547 3.768-3.145-0.09-2.336-3.679-0.18 1.075-7.279-26.825-0.449-0.359-7.908-2.512-1.348-9.241 3.235-1.166 13.21-17.945-6.47-12.471-26.689 7.716-17.074 0.538-3.415-12.561-1.887-16.509 0.988 5.922-14.648-1.927-4.195h-0.6l-22.416 14.44z"/>
    <path d="m61.176 936.56c-2.446 0 0.485 3.491 1.884 3.055 1.151-0.359 0.805-1.119 1.436-1.618 0.922-0.728 1.45 1.388 2.064 1.798 0.896 0.596 2.241-0.435 2.692-1.258 0.509-0.925 0.301-2.522 2.064-2.067 1.518 0.39 1.984-0.432 2.871-1.528 1.086-1.343 2.191-1.696 2.692-3.505 0.454-1.639 0.416-4.207-0.09-5.751h-0.179c-0.265 1.056-0.987 1.874-0.987 3.146 0 1.215-0.156 1.732-0.718 2.696l-0.72-0.54c-2.945 0.8-3.804 0.067-5.652-1.977-2.641-2.921-1.861 4.616-1.884 4.673-0.811 1.942-3.437 2.876-5.473 2.876z" fill="#b00"/>
    <path d="m33.992 942.13c-0.44 0.393-2.865 1.502-2.871 1.528 1.579 0.391 3.626 1.333 5.293 1.888 1.028 0.343 2.33 0.92 3.41 1.528l0.358 1.257c1.92 0.146 3.169 0.472 4.846-0.27 0.649-0.288 0.962-0.846 1.973-0.989 2.198-0.311 4.459-0.783 3.589-3.415-0.355-1.073-1.197-2.99-1.794-3.954-1.428-2.309-0.929-2.85-3.499-1.168-2.304 1.51-6.319 3.813-8.613 1.707-1.156-1.061-1.996 1.267-2.692 1.888z" fill="#b00"/>
    <path d="m40.24 889.88s1.301 0.27 1.3 0.27c0.81-0.046 1.603-0.385 2.422-0.314 0.515 0.044 1.052 0.135 1.571 0.135 0.517 0 1.874 0.076 2.108-0.449 0.109-0.243-0.162-0.722-0.359-0.854-0.612-0.407-1.984 0-2.692 0-1.27 0-2.219 0.109-3.409-0.315-0.349-0.124-0.967-0.133-1.301 0.045-0.311 0.165-1.031 0.659-1.031 1.033 0 0.649 0.99 0.621 1.391 0.449z" fill="#b00"/>
    <path d="m199.17 602.44c-1.927 3.558-5.189 5.143-7.985 7.728-1.564 1.446-3.578 1.262-5.025 2.337-3.49 2.595-4.287 6.526-5.383 10.424-1.212 2.678-0.555 5.513-1.615 7.908-0.912 2.059-7.303-0.349-8.433 1.078-1.092 1.379-1.091 2.157-3.589 2.157 0 0.658 1.03 2.528 1.705 2.695 0 2.79 2.846 8.419 4.934 10.514 2.743 2.751 5.031 6.102 3.948 10.334-3.781 14.778-18.971 6.146-27.455 11.952l-9.062 6.201c-7.217 0.796-4.499 9.705-10.677 9.705-4.919 0-8.882 11.355-8.882 15.726 0 2.712-1.326 11.497-2.602 13.659-1.365 2.31-3.643 3.878-4.934 6.47-1.716 3.443 0.236 3.431-3.14 6.111-3.832 3.043-1.669 3.324-2.512 7.009-0.517 2.259-5.762 0.475-7.536 2.606-3.569 4.29-8.745 3.158-8.344 8.268 0 2.834 1.38 6.045-1.435 7.908-2.04 1.348-4.487 2.114-4.487 4.853 0 4.886-5.583 5.841-9.51 5.841-4.878 0-4.008 1.628-6.191 4.404-3.403 4.329-6.871-1.643-8.792 6.38-0.562 2.35-0.699 12.708-1.974 13.839-2.732 2.421-4.845 1.204-4.845 6.29 0 3.92 3.769 5.726 3.32 9.886-0.673 6.216-4.181 6.369-7.716 9.615-3.376 3.101-2.597 8.281-7.268 10.693l-2.954 3.271c0.561 0.278 1.144 0.5 1.698 0.684v0.36c0.342 0.113-0.816 3.069-0.897 3.774-0.17 1.487-1.87 3.894-2.423 5.571-0.329 0.994-0.682 1.551-0.09 2.516 0.219 0.358 1.229 1.542 0.359 1.977 0 0.489-0.793 0.911-0.987 1.348-0.337 0.756-0.24 1.597-0.359 2.427-0.068 2.349-0.678 3.51-3.23 4.224-3.899 1.089-2.462 6.161 0.629 7.458 5.496 2.308 3.333 10.432 6.998 14.109 2.899 2.907 4.646-0.066 7.088-0.27 1.42-0.119 1.108 1.523 0.449 2.157l-2.333 2.247c-0.448 0-0.94 0.259-1.345 0.359 0 0.912-0.214 1.468 0.09 2.696 1.983 0 7.268-2.557 7.268 0.809-0.558 0.14-1.438 1.191-2.064 1.348 0 0.289-0.284 0.719 0.09 0.719 1.194 4.816 4.379-5.751 5.294-5.751 0 3.274 4.573 0.561 6.281 0.989 0 1.169 1.427 2.839 0.448 3.325-1.216 0.603-3.768 1.55-3.768 3.415l4.217 0.27c0.988 2.98-1.41 1.078-2.96 1.078-1.186 4.783-9.011 1.575-3.051 7.548 1.97 1.976 4.64 5.876 6.46 7.279 1.339 1.031 5.145-2.067 7.088-0.719 1.514 1.049 2.996 6.937 3.948 7.548 1.558 1.002 11.123-2.945 8.075 4.404-1.003 1.322-2.602 0.945-2.602 2.875 5.876 1.481 0.755 5.123 4.307 7.908 1.767 1.387 5.58 3.62 4.755 6.111h-0.179c-0.046 0.134-1.013 0.27-1.077 0.27-0.511 1.517-2.219 0.65-0.18 2.966 2.267 2.575 3.654-2.848 5.742-4.404 1.415-1.055 2.876-3.421 4.307-4.852 1.374-1.374 2.586-2.952 3.947-4.313 1.375-1.376 4.921-3.531 4.127-5.841-0.739-2.148-1.091-4.893-1.615-7.009-1.476 0-3.064-0.071-4.575-0.539-3.981-1.234-2.693-1.188-3.41-5.033 1.694-0.273 9.329-5.972 10.587-0.898 0.212 0 0.268 0.046 0.449 0.09 2.641-7.965 10.784-3.002 14.894-1.617 0 8.491 2.523 0.531 4.845-1.797 1.618-1.623 4.064-5.032 6.549-5.032 2.319 0 7.099 1.166 8.883 0.718 0-3.436 7.538-7.381 10.228-7.818 1.233-0.2 4.887 0.77 5.562-0.09 1.288-1.637 2.285-2.876 4.487-2.876l0.09 0.09c0 2.702-1.402 7.279-2.692 9.615-1.312 2.377 6.034 3.833 7.177 4.404 1.848 0.925 5.294 9.083 6.639 11.412 1.417 2.456 7.268 3.905 7.268 6.56 0.152 0.051 0.09 0.265 0.09 0.449-2.055 0.68-3.056 5.392-5.742 5.392-0.768 2.278-4.446-2.899-5.384-3.235-1.04-0.372-1.878 0.139-2.781 0.449-0.658 0.227-3.499 0.242-3.499 0.899-1.594 0.528 2.737 1.663 2.871 1.708 0 6.181-4.554 5.482-9.331 5.482-4.608 0-20.402 2.065-23.328-1.618-2.679-3.373-9.226-0.68-12.83 0.539-7.282 2.463-6.005 3.119-8.254 9.886 2.318 3.993 4.325 6.087 7.626 9.076 0.935 0.847 3.847 2.562 3.23 3.954-1.483 3.351-11.341 8.447-14.894 8.447-0.53-1.597-0.024-3.93-1.077-5.391-1.228-1.707-1.525-2.236-1.525-4.313 0.456-0.153-0.311-1.654-0.359-1.797h-0.179c-0.045-0.135-3.843-1.258-4.307-1.258l-0.09 0.09v0.27c-0.173 0.058-0.09 1.239-0.09 1.528-1.192 0.394-1.764 2.803-4.307 2.516-0.417-0.046-4.307-3.235-4.397-3.594-0.164-0.041-0.138-0.015-0.179-0.18-3.635 0-1.535 0.65-2.064 2.786-2.738 0-5.423-3.15-6.909-5.302-1.768-2.561-7.669-2.077-10.318-2.966-2.548 3.626-5.676 6.993-7.357 10.873-1.675 3.862 2.288 9.256-3.32 9.256-0.381 1.163-3.422-1.489-4.127-1.258 0 1.966 1.257 3.404-0.807 4.673-0.933 0.573-3.964-0.04-4.307-1.078-0.569 0-3.41 1.216-3.41 1.887 0.393 0.099 3.262 2.374 3.32 2.607 0.931 0.185 2.692 0.372 2.692 1.528-0.574 0.189-2.243 3.739-3.948 4.493-5.77 2.556-3.05 2.507-3.05 7.009 0 1.573-0.987 2.781-0.987 4.493 0 1.684 1.875 2.458 1.615 3.505-1.239 0.313-2.602 1.563-2.602 2.966l0.09 0.09 4.396-0.09c0.839 2.56-0.179 1.975-0.179 4.853l2.961 0.988c0.171 0.696-0.292 0.89-0.449 1.528-1.127 0.278-1.625 3.462-1.346 4.313 1.69 0 6.283-0.089 7.088 1.528 0.058 1.865 2.807 4.996 4.576 5.571 1.736 0.565 3.604 0.449 5.473 0.449 0.89 0 2.349 4.305 1.257 5.032-1.73 1.153-4.945 4.136-6.909 4.313-0.47 1.653-1.795 1.635-1.795 4.583-0.092 0.031-0.234 0.395-0.269 0.539-0.11 0.037-0.143 0.07-0.18 0.18-4.846 1.222-0.431 7.756-0.179 10.245 0.454 4.489-6.563-3.72-6.909-4.763-1.156-0.286-0.661 2.657-0.897 3.594-0.638 0.092-1.47 0.899-2.153 0.899-0.275 0.412-2.099-0.198-2.601 0-0.603 0.237-1.23 1.808-0.18 1.887 3.374 0.254 5.129-0.35 8.255 0.54 0.145 0.729 0.279 1.393 0.09 2.156-0.722 0-1.281 0.039-1.719 0.117l74.439 41.97h1114.3l-54.446-73.259-0.172-406.74h-989.15c-0.684 1.307-1.402 2.631-2.17 4.046z" fill="#b00"/>
    <path d="m618.89 1353.6l25.474 16.726 6.46 41.158c-1.205 0.145-1.531 0.721-2.422 0.898 0 2.428-3.445 6.024-5.473 7.1-4.41 2.342-6.792 8.272-10.766 11.143-2.118 1.532-1.692 2.629-2.333 4.943-0.268 0.967 5.513 0.155 5.742 1.078h0.179c0 3.654-1.25 4.796-2.512 7.908-2.622 6.463 10.373-2.988 12.292 1.348 0.95 2.144 6.317 1.924 8.075 2.966 2.844 1.684 3.523 5.187 4.217 8.177l5.742 15.187 234.47 165.86c0.864-1.914 2.615-4.89 3.82-5.193 0.066-0.267 0.262-0.501 0.538-0.539 0-2.804 4.8-6.202 5.562-10.065 0.384 0 2.463 2.946 2.602 3.505 0.285 0.07 0.269 0.27 0.628 0.27 0.037-0.11 0.07-0.143 0.18-0.18 0-0.765 1.068-4.507 1.615-2.336 3.748 0.945-3.273 7.998 5.383 7.998 3.594 0 12.935 2.789 12.561-2.966-0.226-3.48-4.434-6.56-3.768-9.256 4.061 0 6.281 3.73 6.281-4.852l0.09-0.09c2.415 0-1.538 8.074 1.256 8.537 2.27 0.376 3.669-5.676 4.217-7.459 3.274-10.653 5.773-15.237 13.099-23.904 1.436-1.7 9.241-19.676 9.241-21.656 0-0.841-1.148-3.827-1.077-3.865 2.397-1.323 3.193-0.284 3.499-3.774l3.499-9.435c1.044-2.815 3.914-5.857 5.742-8.357 3.889-5.316 0.656-9.346-5.473-9.346-5.056 0-10.856 3.213-10.856-4.044 1.128-0.28 11.603 2.336 14.624 2.336 0.441-1.785-0.718-3.154-0.718-4.852 0.312 0 0.513 0.09 0.718 0.09 0.522 2.114 1.256 1.807 1.256 4.583 1.09 0.273 0.197 3.852 3.051 3.415 2.107-0.321 3.594-2.754 4.666-4.493 3.164-5.129 3.72-9.575 8.523-14.378 2.963-2.963 4.098-7.166 6.19-10.783 3.502-6.055 4.134-11.984 6.639-18.332 3.091-5.737 4.307-12.051 4.307-18.422 0-0.551 0.292-3.657-0.179-3.774-0.361-1.46-8.362-0.997-9.151-1.258 0-0.821 0.449-1.475 0.449-2.247 0.2-0.048 0.269-0.24 0.269-0.449 0.19-0.08 0.579-0.21 0.628-0.359 1.113 0 2.158-0.36 3.32-0.36 4.105 6.209 5.785-0.578 8.254-4.583 3.163-5.13 4.904-12.653 7.177-18.242l4.934-12.131c0.979-2.408 3.551-2.823 4.935-4.673 8.514-6.402 18.16-8.183 21.891-19.23 1.973-5.841-1.702-12.331 2.243-17.703 1.904-2.591 5.081-6.216 3.051-9.615-1.523-2.549 3.851-9.685 5.473-12.042 0.881-0.44 1.694-1.779 2.512-2.426 0.759-0.599 1.737-1.281 2.512-1.977 0.456-0.411 5.73-3.505 2.422-3.505v-0.27c-1.332 0.441-2.072 0.734-2.96 1.887-0.542 0.704-1.668 2.074-2.871 2.337-0.612 0.134-1.843 0.375-2.332 0.809-0.422 0.375-3.104 2.638-3.499 2.067-1.018-1.468-0.26-2.651 0.629-4.044 0.511-0.8 1.335-0.664 1.973-1.168 0.606-0.481 1.708-1.312 0.987-1.887-1.126-0.899-2.134-1.695-3.14-3.055-0.649-1.952 0.394-7.253-1.884-7.818 0-3.392 7.459-18.251 2.781-19.41 0-9.122 15.874-24.847 23.596-28.666 10.052-4.971 25.558-18.894 37.951-11.592 6.336 3.734 13.178 4.694 17.226-2.696 4.933-5.23 11.668-10.702 18.752-12.401 3.225-0.774 1.462-0.781 2.243-3.055 0.542-1.579 3.804-2.6 5.114-4.134 3.332-3.899-0.107-5.896-0.718-9.255-1.21-0.945-12.381-6.32-12.381-6.83 3.682 0 6.426 1.707 9.51 1.707 0-2.564-4.666-5.113-4.666-8.716 0-2.823 3.949 5.151 4.217 6.2 0.489 1.917 3.388 0.937 2.512-1.348-2.08-5.42 3.752-5.915 1.615-2.427-1.264 2.062-0.808 8.627 2.064 8.627 0.245-1.492 5.862-3.97 7.357-4.584 3.869-1.589 5.234 0.274 4.934-3.414-0.027-0.336-2.588-5.921-0.718-4.404 0.798 0.648 3.553 5.189 3.32 6.021-0.269 0.966-2.255 4.195-0.897 4.583 1.374 0.393 3.777 0.847 4.934-0.09 2.874-2.329 6.401-4.912 7.088-9.076 1.735-10.516-8.863-4.348-10.946-10.154-0.951-2.649 0.538-8.81 0.538-11.862 0-6.948-1.038-10.676-2.961-16.894-0.998-3.225 0.095-3.892-3.858-4.763-2.397-0.527-6.043-2.054-7.536-4.133-0.768-1.068 9.309 3.325 11.394 3.325 0.043 0.171 0.531 0.493 0.718 0.539 0 1.449-0.048 4.897 0.449 6.201 0.624 1.642 3.874 3.44 3.767 5.122-0.264 4.15 7.385 3.642 7.716 0.359 0.537-5.31 0.032-1.31-2.153-4.852-1.297-2.104-1.19-7.191-1.525-9.795 0.643-1.935 2.283-8.064 4.127-8.986 0.077-0.396 0.663-1.547 0.987-1.708 0.127-0.644 1.164-1.241 1.345-1.977l0.09-0.09c0.884 0-0.966 4.84-1.345 5.391-0.765 1.114-1.705 4.783-1.705 6.29 0 1.456 0.858 2.568 0.539 4.224-0.513 2.655-0.255 4.283 0.807 6.56 1.551 3.323 5.165 0.849 7.357 0.539 0.155-0.548 1.388-1.072 1.525-1.617 0.448-0.112 3.747-4.113 4.307-4.673 1.222-1.223-0.548-3.415 2.153-3.415 2.559 0 10.293-3.637 11.484-6.02 0.823-0.166 1.069-0.725 1.436-1.438 1.241-0.71 0.979-1.927 2.512-2.516 1.261-0.485 2.525-0.44 3.858-1.078 4.021-1.921 4.731 1.318 8.075 1.707 1.015 0.118-1.256 3.437-1.256 4.404 1.779 0.441 1.688-0.09 3.499-0.449 0.793-3.939 2.724-0.214 3.589 0 0 1.34-2.007 8.576 1.077 5.482 2.037-2.044 5.82-4.831 7.268-7.099 1.801-2.82 14.265-13.716 14.265-15.277 0-1.95 1.705-3.061 1.705-3.864h0.18c0.444-1.791 13.319-9.082 5.114-6.111-1.286 0.466 0.419-1.681 1.102-2.554h-996.46l346.24 195.21z" fill="#060"/>
    <path d="m1198 1217.9c2.634-1.759 4.666 1.85 6.011-1.797 0.663-1.798 2.147 1.085 2.423 1.707 0.612 1.374 3.811-0.041 4.396-0.989 0.378-0.613 1.169-5.697 2.153-3.774 0.707 1.382-0.048 5.213 2.692 3.595 2.998-1.769 1.22-4.167 2.692-6.381 1.153-1.736-5.799-4.21-7.178-5.482-3.869-3.568-7.285 0.267-10.766 2.247l-7.267 4.134c-1.801 1.025-3.855-0.457-4.666 2.067-0.896 2.788 0.593 4.318-2.153 6.381-2.153 1.617 0.776 4.484 2.692 4.044l1.254 1.797c1.17 0.731 0.562 4.631 2.872 3.594 0.596-0.268 1.766-2.394 1.435-3.055-0.345-0.692-1.598-0.261-2.063-0.989-3.32-5.198 1.741-4.605 5.473-7.099z" fill="#060"/>
    <path d="m446.29 1235.1l14.42 8.325 388.9-673.6c22.745-6.095 35.233-27.724 47.721-49.354 8.325-14.42 41.627-72.1 56.059-147.05-57.692 49.974-90.994 107.65-99.319 122.07-12.488 21.63-24.976 43.26-18.881 66.005l-388.9 673.6z"/>
    <path d="m446.29 1235.1l14.42 8.325 388.9-673.6c22.745-6.095 35.233-27.724 47.721-49.354 8.325-14.42 41.627-72.1 56.059-147.05-57.692 49.974-90.994 107.65-99.319 122.07-12.488 21.63-24.976 43.26-18.881 66.005l-388.9 673.6z" fill="#fff"/>
    <path d="m922.15 1235.1l-14.42 8.325-388.9-673.6c-22.745-6.095-35.233-27.724-47.721-49.354-8.325-14.42-41.627-72.1-56.059-147.05 57.692 49.974 90.994 107.65 99.319 122.07 12.488 21.63 24.976 43.26 18.881 66.005l388.9 673.6z"/>
    <path d="m922.15 1235.1l-14.42 8.325-388.9-673.6c-22.745-6.095-35.233-27.724-47.721-49.354-8.325-14.42-41.627-72.1-56.059-147.05 57.692 49.974 90.994 107.65 99.319 122.07 12.488 21.63 24.976 43.26 18.881 66.005l388.9 673.6z" fill="#fff"/>
    <path d="m526.04 1039.4c24.976 66.603 108.23 199.81 158.18 199.81s133.21-133.21 158.18-199.81v-399.62c-24.977-66.603-108.23-199.81-158.18-199.81s-133.21 133.21-158.18 199.81v399.62z" fill="#b00"/>
    <path d="m842.4 1039.4c24.976-66.603 41.627-133.21 41.627-199.81s-16.651-133.21-41.627-199.81c-24.976 66.603-41.627 133.21-41.627 199.81s16.65 133.21 41.627 199.81z"/>
    <path d="m526.04 1039.4c-24.976-66.603-41.627-133.21-41.627-199.81s16.651-133.21 41.627-199.81c24.976 66.603 41.627 133.21 41.627 199.81s-16.651 133.21-41.627 199.81z"/>
    <ellipse cx="684.22" cy="839.62" rx="33.301" ry="49.952" fill="#fff"/>
    <path d="m692.54 888.32s33.301 66.603 33.301 174.83-33.301 174.83-33.301 174.83v-349.67z" fill="#fff"/>
    <path d="m675.89 790.91s-33.301-66.603-33.301-174.83 33.301-174.83 33.301-174.83v349.67z" fill="#fff"/>
    <path d="m675.89 888.32s-33.301 66.603-33.301 174.83 33.301 174.83 33.301 174.83v-349.67z" fill="#fff"/>
    <path d="m692.54 790.91s33.301-66.603 33.301-174.83-33.301-174.83-33.301-174.83v349.67z" fill="#fff"/>
  </g>
  <g transform="matrix(0.050241, 0, 0, 0.050241, 284.036133, -38.252995)">
    <g transform="matrix(1.67726,0,0,1.67726,-86.6292,-220.424)">
      <path d="M1361.38,508.877C1423.22,498.144 1486.78,492.552 1551.63,492.552C1567.7,492.552 1583.69,492.895 1599.59,493.575C1600.87,487.176 1601.76,480.865 1602.17,474.684C1607.23,399.485 1526.68,377.696 1530.91,314.847C1531.97,299.128 1538.67,286.788 1548.66,277.152C1569.39,255.678 1606.66,244.684 1649.53,245.189C1654.96,245.084 1659.8,245.201 1663.82,245.471C1668.15,245.762 1673.39,246.335 1679.23,247.237C1721.99,252.49 1754.21,266.832 1771.26,288.444C1780.73,299.274 1786.34,312.551 1785.25,328.71C1785.11,330.77 1784.87,332.811 1784.53,334.835C1783.76,341.736 1781.55,348.316 1778.1,354.473C1754.99,402.509 1684.71,440.038 1682.01,480.219C1681.65,485.639 1682.27,492.488 1683.67,500.365C1735.12,506.494 1785.49,516.159 1834.53,529.109C1846.46,520.97 1861.13,511.817 1878.72,501.396C1929.6,471.251 2017.08,300.898 2000.47,269.112C1948.11,168.906 1966.92,118.707 2097.78,170.443C2227.64,221.785 2208.25,267.904 2101.28,307.942C2067.35,320.638 1992.59,462.105 2025.24,561.061C2030.81,577.943 2035.24,592.63 2038.56,605.337C2101.91,636.458 2161.85,673.463 2217.67,715.635C2266.33,682.302 2337.07,604.635 2334.45,582.99C2324.5,500.517 2350.36,467.421 2426.63,528.95C2502.31,590.01 2477.1,620.03 2393.46,629.642C2370.55,632.274 2301.91,699.276 2281.57,767.73C2287.01,772.517 2292.41,777.357 2297.78,782.267C2306.26,744.55 2308.49,707.047 2342.2,680.614C2357.11,668.926 2373.07,664.411 2388.98,664.668C2423.33,664.01 2460.26,684.852 2490.9,719.307C2494.93,723.533 2498.34,727.476 2501.01,730.884C2503.89,734.554 2507.17,739.17 2510.6,744.53C2536.88,782.675 2547.35,819.701 2540.27,850.466C2537.4,866.615 2529.52,881.654 2514.2,893.669C2512.25,895.197 2510.24,896.626 2508.18,897.965C2501.41,902.859 2493.88,906.356 2485.83,908.524C2466.54,914.935 2444.68,916.603 2422.65,916.911C2453.47,956.201 2481.69,997.626 2507.04,1040.89C2513.92,1040.95 2521.23,1041.07 2528.97,1041.25C2589.39,1042.68 2776.88,950.08 2786.51,916.228C2816.86,809.51 2866.74,778.715 2931,886.063C2994.78,992.595 2947.32,1019.82 2836.73,998.1C2801.66,991.209 2644.34,1067.05 2599.69,1162.84C2593.67,1175.77 2588.06,1187.24 2582.81,1197.33C2618.7,1289.28 2642.63,1387.19 2652.7,1489.14C2683.03,1500.57 2714.23,1508.4 2742.46,1508.07C2829.61,1507.03 2847.38,1412.19 2920.22,1411.33C2938.44,1411.11 2953.27,1417.71 2965.29,1428.34C2991.94,1450.27 3008.02,1492.24 3011.35,1541.71C3011.97,1547.96 3012.27,1553.56 3012.33,1558.22C3012.39,1563.23 3012.21,1569.32 3011.7,1576.14C3009.55,1625.91 2995.95,1664.37 2972.59,1685.99C2960.98,1697.9 2946.18,1705.58 2927.45,1705.8C2925.07,1705.83 2922.7,1705.73 2920.35,1705.52C2912.31,1705.27 2904.52,1703.33 2897.1,1699.9C2839.61,1677.65 2789.93,1600.06 2743.37,1600.61C2724.71,1600.83 2692.31,1612.3 2657.74,1627.29C2654.88,1741.2 2634.76,1850.86 2599.9,1953.8C2654.35,1983.86 2726.26,2009.82 2743.36,2000.54C2824.1,1956.72 2867.45,1970.41 2832.47,2075.2C2797.75,2179.19 2757.78,2164.94 2717.27,2081.24C2708.03,2062.15 2641.53,2027.93 2574.79,2020.69C2536.32,2113.86 2485.48,2200.64 2424.29,2279.01C2451.63,2308.46 2479.32,2331.64 2491.41,2331.05C2574.39,2327 2605.55,2355.16 2538.75,2426.85C2472.45,2497.99 2444.3,2470.7 2440.67,2386.59C2440.12,2373.77 2420.69,2345.39 2392.05,2318.42C2372,2341.82 2350.98,2364.38 2329.09,2386.01C2364.93,2391.93 2400.16,2394.56 2423.49,2425.2C2434.52,2439.7 2438.07,2455.55 2436.69,2471.54C2434.97,2506 2410.86,2543.93 2373.12,2576.1C2368.47,2580.32 2364.16,2583.9 2360.45,2586.72C2358.64,2588.1 2356.62,2589.57 2354.42,2591.1C2380.53,2641.84 2414.76,2689.52 2432.59,2691.34C2532.6,2701.54 2560.65,2740.08 2458.18,2811.87C2356.49,2883.11 2331.76,2846.14 2354.42,2747.14C2358.96,2727.34 2333.4,2670.36 2291.45,2624.91C2270.66,2632.06 2251.27,2634.19 2234.17,2630.99C2217.69,2628.75 2202.71,2621.45 2191.37,2606.55C2189.92,2604.65 2188.59,2602.7 2187.35,2600.68C2182.76,2594.08 2179.68,2586.66 2178,2578.66C2176.2,2572.13 2174.99,2565.28 2174.23,2558.2C2155.33,2552.24 2141.39,2546.68 2131.76,2541.18C2076.95,2575.03 2018.95,2604.24 1958.31,2628.24C1954.27,2641.17 1949.08,2656.09 1942.74,2673.21C1921.81,2729.74 1960.78,2922.39 1993.94,2937.44C2098.48,2984.93 2115.44,3037.27 1979.85,3078.59C1845.3,3119.6 1831.37,3070.17 1890.14,2970.1C1908.78,2938.37 1878.08,2777.05 1789.82,2718.08C1773.05,2706.86 1759.1,2696.95 1747.79,2688.12C1707.28,2695.38 1666.02,2700.43 1624.12,2703.15C1618.79,2715.2 1606.47,2732.31 1586.48,2756.7C1559.65,2789.42 1542.16,2925.65 1560.98,2943.05C1620.29,2997.91 1619.81,3036.36 1519.58,3033.31C1420.11,3030.29 1421.97,2994.46 1484.01,2941.4C1503.69,2924.58 1519.63,2810.93 1473.83,2752.12C1455.64,2728.76 1444.46,2711.93 1439.46,2699.86C1408.66,2696.76 1378.22,2692.38 1348.27,2686.81C1337.77,2699.22 1323.02,2714.3 1303.64,2732.81C1263.46,2771.2 1212.34,2949.3 1231.76,2976.14C1293.01,3060.74 1284.07,3111.87 1161.14,3088.34C1039.14,3064.99 1049.2,3017.61 1137.22,2958.98C1150.51,2950.12 1167.52,2911.86 1176.97,2864.78C1160.81,2869.55 1142.2,2869.2 1123.31,2864C1119.61,2863.15 1116.36,2862.2 1113.72,2861.25C1110.87,2860.24 1107.48,2858.81 1103.78,2856.98C1076.29,2844.81 1058.37,2826.32 1052.69,2803.95C1049.21,2792.58 1049.01,2779.7 1054.12,2765.4C1054.76,2763.58 1055.48,2761.81 1056.25,2760.05C1058.64,2753.99 1061.92,2748.46 1065.93,2743.53C1087.83,2713.64 1126.75,2694.09 1149.5,2670.62C1140.64,2650.46 1135.5,2635.16 1133.84,2623.78C1084.58,2603.65 1037.08,2580.07 991.671,2553.35C981.26,2563.13 960.951,2574.77 928.444,2590.64C888.273,2610.25 798.937,2734.77 804.939,2760.26C823.854,2840.63 802.328,2877.8 721.097,2829.19C640.484,2780.95 661.715,2746.95 742.191,2723.6C767.71,2716.2 843.349,2612.94 837.79,2534.89C834.238,2485.01 836.402,2459.82 845.503,2450.64C788.185,2403.05 735.741,2349.79 689.009,2291.69C680.727,2296.29 673.082,2301.38 666.335,2307.01C612.056,2352.28 649.991,2421.68 604.625,2459.51C593.279,2468.98 580.531,2472.38 567.467,2471.77C539.352,2471.47 507.507,2453.01 479.794,2423.26C476.173,2419.61 473.08,2416.2 470.634,2413.27C467.999,2410.11 464.96,2406.15 461.752,2401.56C437.334,2368.81 425.967,2337.39 429.463,2311.68C430.611,2298.16 435.94,2285.71 447.599,2275.99C449.082,2274.75 450.62,2273.6 452.212,2272.52C457.398,2268.57 463.309,2265.81 469.752,2264.19C517.423,2248.92 588.844,2272.82 617.847,2248.63C623.965,2243.53 630.865,2234.49 638.065,2223.11C616.696,2191.91 596.883,2159.55 578.755,2126.19C568.223,2135.88 539.342,2131 480.895,2112.47C431.26,2096.74 268.944,2139.73 258.117,2169.47C223.981,2263.22 180.269,2280.49 136.552,2163.62C93.167,2047.63 134.575,2033.16 223.778,2080.04C252.064,2094.91 388.102,2060.6 433.075,1980.58C458.263,1935.77 475.332,1913.01 488.776,1907.4C467.959,1835.62 454.224,1760.87 448.374,1683.92C389.145,1675.01 294.574,1679.84 281.772,1696C230.195,1761.12 188.479,1766.04 178.508,1668.56C168.614,1571.82 207.684,1568.6 273.377,1621.24C290.898,1635.29 382.275,1637.18 445.18,1606.13C445.166,1603.78 445.158,1601.4 445.158,1599.02C445.158,1540.46 449.718,1482.95 458.512,1426.77C448.654,1416.5 437.279,1403.52 424.035,1387.64C412.738,1374.09 387.393,1358.53 357.213,1344.18C314.165,1352.88 280.191,1383.76 235.975,1368.22C220.654,1362.84 210.083,1353.24 203.013,1341.39C195.515,1329.79 191.144,1315.54 189.729,1299.7C189.047,1299.99 188.425,1300.32 187.862,1300.67C100.063,1356.2 50.03,1344.06 81.419,1223.29C112.261,1104.62 157.905,1116.22 209.529,1205.06C225.028,1172.05 245.785,1149.68 269.476,1140.89C282.567,1135.27 297.118,1133.88 312.861,1139.41C314.864,1140.11 316.821,1140.91 318.739,1141.79C325.399,1144.43 331.383,1148.3 336.637,1153.2C370.913,1181.55 390.372,1236.84 417.778,1263.52C432.933,1261.55 447.489,1257.93 460.826,1252.26C478.661,1244.68 493.858,1238.76 506.727,1234.44C528.215,1172.91 554.99,1113.86 586.507,1057.83C550.691,1032.27 514.255,1012.66 501.654,1016.14C421.576,1038.24 385.004,1017.58 434.519,933.019C483.657,849.103 517.09,869.574 539.021,950.854C542.734,964.62 573.376,992.016 612.951,1013.28C649.956,954.136 692.397,898.731 739.569,847.776C738.605,841.619 737.645,835.098 736.679,828.183C734.71,814.086 725.668,794.044 712.771,772.07C698.058,770.083 684.279,765.286 672.218,753.692C661.452,743.344 656.578,730.96 655.674,717.838C654.867,710.165 655.376,702.073 657.083,693.733C627.023,657.617 596.604,629.508 582.036,629.62C478.155,630.415 442.076,593.688 532.502,507.699C622.241,422.365 654.639,457.848 650.822,562.95C650.342,576.148 664.788,603.163 688.358,631.9C690.158,629.63 692.024,627.372 693.953,625.129C697.184,621.126 700.223,617.679 702.869,614.926C705.718,611.962 709.326,608.509 713.538,604.822C743.414,576.985 773.469,562.332 799.554,563.131C813.189,562.861 826.241,566.883 837.304,577.516C838.711,578.869 840.041,580.285 841.299,581.764C845.847,586.533 849.284,592.152 851.652,598.421C868.528,635.818 861.413,691.583 872.89,725.381C935.908,676.34 1004.35,633.963 1077.17,599.306C1056.94,553.449 1030.11,509.357 1015.72,505.911C934.935,486.56 912.903,450.796 997.116,400.695C1080.69,350.975 1100.07,385.055 1079.99,466.811C1075.99,483.061 1095.4,533.668 1128.17,576.606C1157.69,564.346 1187.87,553.33 1218.62,543.628C1220.59,539.923 1222.66,536.084 1224.83,532.102C1250.02,485.95 1239.51,316.004 1212.38,299.256C1126.84,246.451 1118.41,199.539 1241.93,179.639C1364.51,159.891 1370.64,203.95 1307.06,283.145C1287.15,307.949 1293.85,446.867 1361.38,508.877Z" style="fill:rgb(128,195,65);"/>
    </g>
    <g transform="matrix(2.98671,0,0,2.98671,254.968,214.664)">
      <path d="M1102.25,1192.59C1102.25,1209.67 1084.17,1223.48 1061.87,1223.48C1061.87,1223.48 900.379,1255.44 750.769,1255.44C632.358,1255.44 441.123,1223.48 441.123,1223.48C418.848,1223.48 400.774,1209.67 400.774,1192.59L400.774,902.364C400.774,885.246 418.847,871.477 441.123,871.477C441.123,871.477 623.77,903.082 750.769,901.457C874.527,899.873 1061.87,871.477 1061.87,871.477C1084.17,871.477 1102.25,885.246 1102.25,902.364L1102.25,1192.59Z" style="fill:white;fill-rule:nonzero;"/>
      <path d="M451.286,939.711C450.667,941.71 448.454,942.803 446.345,942.15L140.582,848.203C138.472,847.55 137.263,845.398 137.881,843.399L133.772,809.4C134.391,807.4 136.604,806.308 138.714,806.962L457.648,905.619C459.758,906.272 460.967,908.423 460.349,910.423L451.286,939.711Z" style="fill:white;fill-rule:nonzero;"/>
      <g transform="matrix(1,0,0,1,10.6699,0)">
        <path d="M642.712,1121.81C643.343,1123.81 642.147,1125.97 640.041,1126.63L334.21,1225.76C332.104,1226.42 329.884,1225.34 329.254,1223.35L304.381,1196.59C303.75,1194.59 304.946,1192.43 307.052,1191.77L628.516,1090.17C630.622,1089.5 632.842,1090.58 633.473,1092.58L642.712,1121.81Z" style="fill:white;fill-rule:nonzero;"/>
      </g>
      <path d="M1054.15,939.711C1054.77,941.71 1056.98,942.803 1059.09,942.15L1371.01,846.578C1373.12,845.925 1373.23,844.263 1373.71,841.774L1377.98,807.833C1378.09,805.842 1378.23,803.952 1376.12,804.606L1047.79,905.619C1045.68,906.272 1044.47,908.423 1045.09,910.423L1054.15,939.711Z" style="fill:white;fill-rule:nonzero;"/>
      <path d="M857.287,1121.81C856.656,1123.81 857.853,1125.97 859.959,1126.63L1163.51,1224.72C1165.62,1225.39 1167.83,1224.31 1168.46,1222.31L1195.62,1196.59C1196.25,1194.59 1195.05,1192.43 1192.95,1191.77L871.482,1090.17C869.377,1089.5 867.156,1090.58 866.525,1092.58L857.287,1121.81Z" style="fill:white;fill-rule:nonzero;"/>
    </g>
    <g transform="matrix(2.815,0,0,2.815,415.537,339.791)">
      <path d="M434.723,844.698C276.066,844.698 146.916,715.62 146.916,556.879C146.916,398.191 276.041,269.072 434.723,269.072C593.4,269.072 722.458,398.235 722.458,556.879C722.458,715.62 593.4,844.698 434.723,844.698Z" style="fill:white;fill-rule:nonzero;"/>
      <path d="M432.565,405.891C520.937,405.891 592.552,477.503 592.552,565.834C592.552,654.163 520.937,725.774 432.565,725.774C344.231,725.774 272.601,654.162 272.601,565.834C272.601,477.503 344.23,405.891 432.565,405.891Z" style="fill:rgb(35,31,32);fill-rule:nonzero;"/>
      <path d="M473.213,473.724C495.735,473.724 513.994,491.997 513.994,514.5C513.994,536.979 495.735,555.325 473.213,555.325C450.707,555.325 432.419,536.979 432.419,514.5C432.419,491.998 450.708,473.724 473.213,473.724Z" style="fill:white;fill-rule:nonzero;"/>
      <path d="M430.122,291.427C576.187,291.427 694.395,409.697 694.395,555.735C694.395,611.703 676.984,663.616 647.272,706.344C599.556,774.965 520.115,819.899 430.122,819.899C284.234,819.899 165.941,701.632 165.941,555.671C165.927,409.696 284.234,291.427 430.122,291.427M430.122,244.354C258.493,244.354 118.848,384.031 118.848,555.671C118.848,727.303 258.493,866.966 430.122,866.966C601.803,866.966 741.457,727.303 741.457,555.631C741.48,383.987 601.838,244.354 430.122,244.354Z" style="fill:rgb(78,184,72);fill-rule:nonzero;"/>
    </g>
    <g transform="matrix(2.815,0,0,2.815,415.537,339.791)">
      <path d="M1051.61,844.698C892.948,844.698 763.857,715.62 763.857,556.879C763.857,398.235 892.907,269.072 1051.61,269.072C1210.28,269.072 1339.45,398.167 1339.45,556.879C1339.45,715.62 1210.28,844.698 1051.61,844.698Z" style="fill:white;fill-rule:nonzero;"/>
      <path d="M1053.77,405.891C1142.13,405.891 1213.75,477.503 1213.75,565.834C1213.75,654.217 1142.13,725.827 1053.77,725.827C965.397,725.827 893.762,654.217 893.762,565.834C893.762,477.503 965.396,405.891 1053.77,405.891Z" style="fill:rgb(35,31,32);fill-rule:nonzero;"/>
      <path d="M1013.11,473.724C1035.64,473.724 1053.92,491.936 1053.92,514.5C1053.92,536.979 1035.64,555.325 1013.11,555.325C990.597,555.325 972.321,536.979 972.321,514.5C972.321,491.937 990.598,473.724 1013.11,473.724Z" style="fill:white;fill-rule:nonzero;"/>
    </g>
    <g transform="matrix(2.815,0,0,2.815,415.537,339.791)">
      <path d="M1056.18,291.427C1202.08,291.427 1320.41,409.697 1320.37,555.671C1320.37,701.585 1202.08,819.899 1056.18,819.899C910.179,819.899 791.93,701.55 791.93,555.671C791.952,409.696 910.144,291.427 1056.18,291.427M1056.18,244.354C884.501,244.354 744.868,383.988 744.868,555.631C744.868,727.304 884.524,866.966 1056.18,866.966C1227.83,866.966 1367.48,727.303 1367.48,555.671C1367.48,384.031 1227.83,244.354 1056.18,244.354Z" style="fill:rgb(78,184,72);fill-rule:nonzero;"/>
    </g>
  </g>
  <g transform="matrix(0.24529, 0, 0, 0.264731, -79.411392, -13.052199)">
    <g transform="matrix(1 0 0 -1 0 1024)">
      <g transform="">
        <path d="M 0 1024 L 1024 1024 L 1024 0 L 0 0 Z" style="fill: none;"/>
      </g>
      <g style="clip-path: url(#clippath1);">
        <g transform="translate(834.0781 368.6475)">
          <path d="M 0 0 C -13.232 9.525 -28.833 12.817 -43.538 10.641 C -65.126 7.445 -87.174 10.008 -107.392 18.227 L -132.545 30.686 C -116.824 57.921 -106.647 88.754 -103.531 121.645 C -95.86 117.952 -88.602 113.354 -81.878 107.994 C -72.986 100.905 -61.667 96.755 -49.409 96.982 C -20.243 97.521 2.705 122.621 0.078 152.191 C -2.137 177.126 -22.745 196.935 -47.748 198.168 C -61.605 198.851 -74.27 193.987 -83.766 185.631 C -90.045 180.104 -96.937 175.378 -104.276 171.525 C -107.682 198.639 -115.916 224.248 -128.073 247.479 L -99.517 257.491 C -78.699 264.79 -56.372 265.86 -34.687 261.818 C -21.549 259.37 -7.514 261.311 5.08 268.31 C 35.044 284.965 45.004 323.671 25.96 352.903 C 9.902 377.554 -22.412 386.734 -49.035 374.216 C -63.79 367.278 -74.246 355.242 -79.488 341.332 C -87.184 320.91 -100.134 302.883 -117.14 289.205 L -141.38 269.707 C -156.09 291.336 -174.469 310.265 -195.616 325.614 C -186.864 332.942 -176.92 338.832 -166.251 343.223 C -155.735 347.55 -146.608 355.428 -140.852 366.252 C -127.154 392.007 -137.943 424.258 -165.065 436.329 C -187.936 446.507 -215.262 438.118 -228.486 416.862 C -235.816 405.083 -237.717 391.65 -235.026 379.29 C -232.754 368.848 -232.101 358.168 -233.057 347.621 C -256.909 358.695 -283.018 365.732 -310.513 367.821 L -309.681 372.666 C -305.946 394.407 -296.035 414.443 -281.967 431.434 C -273.444 441.727 -268.321 454.937 -268.321 469.345 C -268.321 503.626 -297.313 531.137 -332.117 528.694 C -361.463 526.634 -385.187 502.849 -387.179 473.498 C -388.284 457.23 -382.844 442.244 -373.231 430.904 C -359.12 414.256 -349.656 394.179 -345.962 372.67 L -345.129 367.821 C -368.984 366.009 -391.792 360.468 -412.994 351.804 C -415.506 365.899 -415.008 380.413 -411.931 394.526 C -409.509 405.637 -410.797 417.624 -416.425 428.516 C -429.816 454.431 -462.479 463.902 -487.834 448.46 C -509.215 435.439 -517.857 408.192 -507.898 385.226 C -502.378 372.497 -492.412 363.293 -480.716 358.475 C -467.614 353.079 -455.785 345.109 -445.938 335.056 C -467.991 321.453 -487.518 304.156 -503.664 284.027 L -512.805 292.982 C -528.563 308.42 -539.404 327.968 -545.376 349.204 C -548.995 362.068 -556.946 373.795 -568.796 381.99 C -596.992 401.49 -636.108 393.292 -653.896 363.278 C -668.894 337.97 -662.826 304.929 -639.818 286.595 C -627.066 276.434 -611.646 272.384 -596.853 273.839 C -575.134 275.977 -553.237 272.34 -533.446 263.144 L -521.843 257.753 C -537.273 231.686 -547.602 202.247 -551.449 170.799 C -565.82 175.379 -579 183.156 -590.409 193.202 C -598.943 200.717 -610.047 205.415 -622.301 205.787 C -651.458 206.673 -675.605 182.725 -674.426 153.062 C -673.433 128.048 -653.816 107.256 -628.903 104.804 C -615.096 103.444 -602.209 107.684 -592.316 115.566 C -580.7 124.821 -567.291 131.483 -552.98 135.105 C -552.041 108.372 -546.449 82.823 -536.981 59.246 L -541.659 57.858 C -562.808 51.585 -585.16 51.606 -606.623 56.703 C -619.625 59.79 -633.738 58.538 -646.659 52.161 C -677.4 36.99 -689.239 -1.183 -671.646 -31.311 C -656.812 -56.716 -624.984 -67.464 -597.782 -56.261 C -582.706 -50.052 -571.674 -38.542 -565.759 -24.904 C -557.075 -4.882 -543.259 12.489 -525.606 25.321 L -521.633 28.209 C -506.843 3.325 -487.401 -18.463 -464.5 -35.964 C -471.688 -40.53 -479.426 -44.27 -487.53 -47.15 C -498.245 -50.959 -507.746 -58.382 -514.024 -68.912 C -528.964 -93.967 -519.763 -126.707 -493.263 -140.088 C -470.917 -151.371 -443.213 -144.326 -428.966 -123.743 C -421.07 -112.335 -418.515 -99.012 -420.599 -86.535 C -421.975 -78.292 -422.352 -69.953 -421.751 -61.692 C -401.322 -71.075 -379.253 -77.498 -356.085 -80.397 L -357.151 -85.188 C -361.943 -106.722 -372.821 -126.249 -387.703 -142.532 C -396.718 -152.396 -402.48 -165.341 -403.184 -179.731 C -404.859 -213.972 -377.245 -242.865 -342.365 -242.126 C -312.952 -241.502 -288.095 -218.904 -284.671 -189.686 C -282.773 -173.491 -287.475 -158.257 -296.521 -146.462 C -309.803 -129.145 -318.274 -108.629 -320.914 -86.965 L -321.51 -82.066 C -291.509 -81.241 -262.979 -74.543 -237.013 -63.094 C -234.695 -75.708 -234.754 -88.707 -236.892 -101.485 C -238.768 -112.701 -236.896 -124.611 -230.742 -135.215 C -216.102 -160.445 -183.015 -168.31 -158.444 -151.647 C -137.726 -137.598 -130.424 -109.961 -141.494 -87.508 C -147.629 -75.064 -158.033 -66.357 -169.95 -62.117 C -181.688 -57.94 -192.54 -51.726 -202.011 -43.788 C -181.919 -30.24 -164.141 -13.532 -149.363 5.613 L -126.549 -12.585 C -110.057 -27.234 -98.273 -46.229 -91.271 -67.147 C -87.028 -79.82 -78.514 -91.145 -66.277 -98.751 C -37.163 -116.851 1.507 -106.751 17.807 -75.904 C 31.551 -49.894 23.876 -17.188 0 0" style="fill: rgb(84, 154, 62); fill-opacity: 1;"/>
        </g>
      </g>
      <g style="clip-path: url(#clippath1);">
        <g transform="translate(542.376 692.5083)">
          <path d="M 0 0 C 0 -8.562 -6.941 -15.503 -15.503 -15.503 C -24.065 -15.503 -31.006 -8.562 -31.006 0 C -31.006 8.562 -24.065 15.503 -15.503 15.503 C -6.941 15.503 0 8.562 0 0" style="fill: rgb(110, 182, 97); fill-opacity: 1;"/>
        </g>
      </g>
      <g style="clip-path: url(#clippath1);">
        <g transform="translate(501.5635 585.4819)">
          <path d="M 0 0 C 0 -10.815 -8.768 -19.583 -19.583 -19.583 C -30.398 -19.583 -39.167 -10.815 -39.167 0 C -39.167 10.815 -30.398 19.583 -19.583 19.583 C -8.768 19.583 0 10.815 0 0" style="fill: rgb(110, 182, 97); fill-opacity: 1;"/>
        </g>
      </g>
      <g style="clip-path: url(#clippath1);">
        <g transform="translate(637.4414 638.2549)">
          <path d="M 0 0 C 0 -6.596 -5.347 -11.942 -11.942 -11.942 C -18.538 -11.942 -23.885 -6.596 -23.885 0 C -23.885 6.595 -18.538 11.942 -11.942 11.942 C -5.347 11.942 0 6.595 0 0" style="fill: rgb(110, 182, 97); fill-opacity: 1;"/>
        </g>
      </g>
      <g style="clip-path: url(#clippath1);">
        <g transform="translate(665.8848 593.9663)">
          <path d="M 0 0 C 0 -7.767 -6.296 -14.063 -14.063 -14.063 C -21.829 -14.063 -28.125 -7.767 -28.125 0 C -28.125 7.767 -21.829 14.063 -14.063 14.063 C -6.296 14.063 0 7.767 0 0" style="fill: rgb(110, 182, 97); fill-opacity: 1;"/>
        </g>
      </g>
      <g style="clip-path: url(#clippath1);">
        <g transform="translate(681.7246 449.2627)">
          <path d="M 0 0 C 0 -8.059 -6.533 -14.592 -14.592 -14.592 C -22.651 -14.592 -29.185 -8.059 -29.185 0 C -29.185 8.059 -22.651 14.592 -14.592 14.592 C -6.533 14.592 0 8.059 0 0" style="fill: rgb(110, 182, 97); fill-opacity: 1;"/>
        </g>
      </g>
      <g style="clip-path: url(#clippath1);">
        <g transform="translate(590.7803 585.5806)">
          <path d="M 0 0 C 0 -9.507 -7.707 -17.214 -17.215 -17.214 C -26.722 -17.214 -34.43 -9.507 -34.43 0 C -34.43 9.508 -26.722 17.215 -17.215 17.215 C -7.707 17.215 0 9.508 0 0" style="fill: rgb(110, 182, 97); fill-opacity: 1;"/>
        </g>
      </g>
      <g style="clip-path: url(#clippath1);">
        <g transform="translate(421.6196 646.5679)">
          <path d="M 0 0 C 0 -8.625 -6.992 -15.617 -15.617 -15.617 C -24.242 -15.617 -31.233 -8.625 -31.233 0 C -31.233 8.625 -24.242 15.617 -15.617 15.617 C -6.992 15.617 0 8.625 0 0" style="fill: rgb(110, 182, 97); fill-opacity: 1;"/>
        </g>
      </g>
      <g style="clip-path: url(#clippath1);">
        <g transform="translate(467.583 678.0454)">
          <path d="M 0 0 C 0 -8.568 -6.946 -15.514 -15.514 -15.514 C -24.082 -15.514 -31.028 -8.568 -31.028 0 C -31.028 8.568 -24.082 15.514 -15.514 15.514 C -6.946 15.514 0 8.568 0 0" style="fill: rgb(110, 182, 97); fill-opacity: 1;"/>
        </g>
      </g>
      <g style="clip-path: url(#clippath1);">
        <g transform="translate(340.1865 504.4971)">
          <path d="M 0 0 C 0 -10.316 -8.363 -18.68 -18.679 -18.68 C -28.995 -18.68 -37.358 -10.316 -37.358 0 C -37.358 10.315 -28.995 18.679 -18.679 18.679 C -8.363 18.679 0 10.315 0 0" style="fill: rgb(110, 182, 97); fill-opacity: 1;"/>
        </g>
      </g>
      <g style="clip-path: url(#clippath1);">
        <g transform="translate(352.2168 582.1772)">
          <path d="M 0 0 C 0 -9.995 -8.103 -18.097 -18.097 -18.097 C -28.092 -18.097 -36.194 -9.995 -36.194 0 C -36.194 9.995 -28.092 18.097 -18.097 18.097 C -8.103 18.097 0 9.995 0 0" style="fill: rgb(110, 182, 97); fill-opacity: 1;"/>
        </g>
      </g>
      <g style="clip-path: url(#clippath1);">
        <g transform="translate(438.3379 419.7959)">
          <path d="M 0 0 C 0 -10.85 -8.796 -19.646 -19.646 -19.646 C -30.496 -19.646 -39.292 -10.85 -39.292 0 C -39.292 10.851 -30.496 19.646 -19.646 19.646 C -8.796 19.646 0 10.851 0 0" style="fill: rgb(110, 182, 97); fill-opacity: 1;"/>
        </g>
      </g>
      <g style="clip-path: url(#clippath1);">
        <g transform="translate(446.8799 532.96)">
          <path d="M 0 0 C 0 -9.533 -7.728 -17.261 -17.261 -17.261 C -26.793 -17.261 -34.521 -9.533 -34.521 0 C -34.521 9.533 -26.793 17.261 -17.261 17.261 C -7.728 17.261 0 9.533 0 0" style="fill: rgb(110, 182, 97); fill-opacity: 1;"/>
        </g>
      </g>
      <g style="clip-path: url(#clippath1);">
        <g transform="translate(582.2891 336.7207)">
          <path d="M 0 0 C 0 -8.568 -6.945 -15.514 -15.514 -15.514 C -24.082 -15.514 -31.027 -8.568 -31.027 0 C -31.027 8.567 -24.082 15.514 -15.514 15.514 C -6.945 15.514 0 8.567 0 0" style="fill: rgb(110, 182, 97); fill-opacity: 1;"/>
        </g>
      </g>
      <g style="clip-path: url(#clippath1);">
        <g transform="translate(643.0215 366.0312)">
          <path d="M 0 0 C 0 -8.516 -6.903 -15.419 -15.419 -15.419 C -23.935 -15.419 -30.838 -8.516 -30.838 0 C -30.838 8.516 -23.935 15.419 -15.419 15.419 C -6.903 15.419 0 8.516 0 0" style="fill: rgb(110, 182, 97); fill-opacity: 1;"/>
        </g>
      </g>
      <g style="clip-path: url(#clippath1);">
        <g transform="translate(714.6211 527.0352)">
          <path d="M 0 0 C 0 -6.399 -5.187 -11.586 -11.586 -11.586 C -17.984 -11.586 -23.171 -6.399 -23.171 0 C -23.171 6.398 -17.984 11.586 -11.586 11.586 C -5.187 11.586 0 6.398 0 0" style="fill: rgb(110, 182, 97); fill-opacity: 1;"/>
        </g>
      </g>
      <g style="clip-path: url(#clippath1);">
        <g transform="translate(598.4629 687.0396)">
          <path d="M 0 0 C 0 -6.341 -5.14 -11.481 -11.48 -11.481 C -17.821 -11.481 -22.962 -6.341 -22.962 0 C -22.962 6.34 -17.821 11.48 -11.48 11.48 C -5.14 11.48 0 6.34 0 0" style="fill: rgb(110, 182, 97); fill-opacity: 1;"/>
        </g>
      </g>
      <g style="clip-path: url(#clippath1);">
        <g transform="translate(492.5439 632.6353)">
          <path d="M 0 0 C 0 -9.583 -7.769 -17.353 -17.353 -17.353 C -26.937 -17.353 -34.706 -9.583 -34.706 0 C -34.706 9.583 -26.937 17.353 -17.353 17.353 C -7.769 17.353 0 9.583 0 0" style="fill: rgb(110, 182, 97); fill-opacity: 1;"/>
        </g>
      </g>
      <g style="clip-path: url(#clippath1);">
        <g transform="translate(486.5288 359.0898)">
          <path d="M 0 0 C 0 -9.984 -8.094 -18.078 -18.078 -18.078 C -28.062 -18.078 -36.156 -9.984 -36.156 0 C -36.156 9.984 -28.062 18.078 -18.078 18.078 C -8.094 18.078 0 9.984 0 0" style="fill: rgb(110, 182, 97); fill-opacity: 1;"/>
        </g>
      </g>
      <g style="clip-path: url(#clippath1);">
        <g transform="translate(387.7949 418.6191)">
          <path d="M 0 0 C 0 -10.855 -8.8 -19.655 -19.655 -19.655 C -30.51 -19.655 -39.309 -10.855 -39.309 0 C -39.309 10.854 -30.51 19.654 -19.655 19.654 C -8.8 19.654 0 10.854 0 0" style="fill: rgb(110, 182, 97); fill-opacity: 1;"/>
        </g>
      </g>
      <g style="clip-path: url(#clippath1);">
        <g transform="translate(405.8081 488.1914)">
          <path d="M 0 0 C 0 -14.579 -11.818 -26.396 -26.396 -26.396 C -40.975 -26.396 -52.793 -14.579 -52.793 0 C -52.793 14.578 -40.975 26.396 -26.396 26.396 C -11.818 26.396 0 14.578 0 0" style="fill: rgb(110, 182, 97); fill-opacity: 1;"/>
        </g>
      </g>
      <g style="clip-path: url(#clippath1);">
        <g transform="translate(568.0156 492.0693)">
          <path d="M 0 0 C 0 -20.159 -16.343 -36.501 -36.501 -36.501 C -56.66 -36.501 -73.002 -20.159 -73.002 0 C -73.002 20.159 -56.66 36.5 -36.501 36.5 C -16.343 36.5 0 20.159 0 0" style="fill: rgb(110, 182, 97); fill-opacity: 1;"/>
        </g>
      </g>
      <g style="clip-path: url(#clippath1);">
        <g transform="translate(528.0771 422.4434)">
          <path d="M 0 0 C 0 -15.51 -12.573 -28.084 -28.084 -28.084 C -43.594 -28.084 -56.168 -15.51 -56.168 0 C -56.168 15.511 -43.594 28.084 -28.084 28.084 C -12.573 28.084 0 15.511 0 0" style="fill: rgb(110, 182, 97); fill-opacity: 1;"/>
        </g>
      </g>
      <g style="clip-path: url(#clippath1);">
        <g transform="translate(632.9561 501.8213)">
          <path d="M 0 0 C 0 -8.401 -6.811 -15.213 -15.212 -15.213 C -23.614 -15.213 -30.425 -8.401 -30.425 0 C -30.425 8.401 -23.614 15.212 -15.212 15.212 C -6.811 15.212 0 8.401 0 0" style="fill: rgb(110, 182, 97); fill-opacity: 1;"/>
        </g>
      </g>
    </g>
  </g>
  <g transform="matrix(0.094441, 0, 0, 0.094441, -23.636969, 317.676941)" style="shape-rendering: geometricprecision;">
    <g id="Ebene_x0020_1">
      <g id="_874489360">
        <path class="fil0" d="M1203 79c0,-3 0,-7 1,-10 -39,-4 -67,-14 -67,-32 1,-17 48,-38 106,-37 58,1 104,23 104,40 -1,17 -27,26 -65,29 0,3 1,7 0,11 -19,138 -73,252 -90,355 -24,0 -49,-1 -74,-1 64,-115 68,-229 84,-355z" id="path3805" style="fill: rgb(18, 120, 70);"/>
        <path class="fil0" d="M200 1188c-3,0 -5,0 -7,0 -4,38 -12,64 -24,64 -13,0 -26,-44 -26,-100 0,-55 13,-99 26,-100 13,0 20,25 24,60 2,-1 5,-1 8,-1 101,-6 186,12 261,-10 0,26 0,52 0,78 -85,-24 -169,3 -261,8z" id="path3807" style="fill: rgb(18, 120, 70);"/>
        <path class="fil0" d="M467 471c-2,-2 -4,-4 -5,-6 -32,27 -58,41 -68,30 -10,-11 13,-56 56,-100 43,-44 89,-69 100,-59 10,10 -4,36 -29,69 3,1 5,3 7,5 78,80 117,168 177,217 -21,20 -41,41 -60,61 -31,-94 -107,-144 -177,-218z" id="path3809" style="fill: rgb(18, 120, 70);"/>
        <path class="fil0" d="M543 1872c-2,2 -4,4 -6,6 29,31 46,58 35,70 -11,11 -61,-10 -106,-51 -46,-40 -70,-85 -60,-96 10,-11 36,0 68,23 1,-3 3,-5 5,-8 72,-93 147,-154 177,-236 21,19 43,38 65,56 -75,57 -110,151 -178,236z" id="path3811" style="fill: rgb(18, 120, 70);"/>
        <path class="fil0" d="M1274 2166c1,3 1,7 2,10 -42,4 -72,14 -71,31 1,17 52,37 114,38 62,1 111,-18 110,-35 -1,-17 -30,-27 -70,-32 0,-3 1,-7 0,-11 -24,-137 -88,-251 -113,-352 -26,0 -51,-1 -78,-2 75,115 84,227 105,352z" id="path3813" style="fill: rgb(18, 120, 70);"/>
        <path class="fil0" d="M1740 1162c3,0 5,0 7,0 11,36 27,62 40,62 13,0 8,-43 7,-96 -1,-54 -1,-96 -14,-96 -13,0 -27,24 -35,59 -2,-1 -5,-1 -8,-1 -101,-4 -188,18 -261,1 -2,25 -1,51 1,76 82,-29 168,-6 261,-4z" id="path3815" style="fill: rgb(18, 120, 70);"/>
        <path class="fil0" d="M1930 1832c4,2 8,4 11,5 -5,32 0,60 19,69 19,10 56,-16 69,-59 14,-42 -2,-85 -23,-95 -21,-10 -36,3 -49,27 -4,-2 -8,-5 -12,-7 -162,-81 -298,-131 -408,-207 -3,20 -7,40 -11,59 132,47 259,133 403,206z" id="path3817" style="fill: rgb(18, 120, 70);"/>
        <path class="fil0" d="M1859 471c4,-2 7,-4 11,-6 14,26 32,39 51,29 19,-10 28,-54 11,-96 -17,-42 -54,-66 -71,-56 -17,10 -19,35 -12,66 -4,2 -7,3 -11,5 -144,79 -256,167 -362,217 6,20 12,40 17,59 108,-94 232,-145 366,-218z" id="path3819" style="fill: rgb(18, 120, 70);"/>
        <path class="fil1" d="M1174 397c185,3 316,104 357,243 39,132 16,307 -18,495 52,187 102,361 76,493 -27,139 -160,231 -355,234 -195,-5 -399,-87 -554,-220 -145,-124 -234,-301 -245,-493 7,-193 89,-376 223,-512 142,-144 330,-243 515,-240z" id="path3821" style="fill: rgb(0, 152, 70);"/>
        <path class="fil2" d="M1074 2006c0,3 0,6 0,8 37,14 62,30 61,45 -1,15 -46,17 -100,2 -54,-15 -95,-42 -94,-56 1,-14 25,-16 60,-11 0,-3 -1,-6 -1,-9 -5,-114 6,-203 -22,-292 23,6 47,13 70,20 -11,88 22,188 27,293z" id="path3823" style="fill: rgb(75, 178, 114);"/>
        <path class="fil2" d="M1713 1867c3,2 6,4 8,7 24,-17 47,-25 63,-13 15,11 7,47 -25,78 -32,30 -75,43 -88,31 -13,-12 -6,-32 10,-55 -3,-2 -6,-4 -9,-6 -117,-91 -204,-181 -298,-244 11,-13 22,-26 33,-38 86,94 197,159 307,241z" id="path3825" style="fill: rgb(75, 178, 114);"/>
        <path class="fil2" d="M319 959c-2,-1 -4,-1 -6,-2 -11,31 -24,52 -35,49 -11,-3 -13,-45 -1,-92 12,-47 35,-82 47,-79 11,3 12,26 6,58 2,0 5,0 7,1 88,20 153,58 220,60 -7,23 -13,45 -20,68 -63,-44 -140,-42 -219,-62z" id="path3827" style="fill: rgb(75, 178, 114);"/>
        <path class="fil2" d="M444 1604c-2,2 -4,3 -6,4 17,31 25,56 14,63 -11,7 -46,-20 -73,-62 -27,-42 -37,-83 -27,-90 10,-7 27,8 48,32 2,-1 3,-3 5,-5 75,-60 148,-92 192,-150 13,20 27,40 40,59 -75,28 -123,95 -193,149z" id="path3829" style="fill: rgb(75, 178, 114);"/>
        <path class="fil2" d="M1465 269c2,-3 3,-5 4,-8 32,8 58,8 67,-6 9,-14 -20,-44 -65,-62 -45,-18 -90,-17 -96,-3 -7,14 9,30 35,46 -2,2 -4,5 -6,8 -70,112 -116,213 -184,292 17,7 35,15 51,22 46,-103 127,-189 193,-290z" id="path3831" style="fill: rgb(75, 178, 114);"/>
        <path class="fil2" d="M794 344c-1,-3 -2,-5 -3,-7 31,-24 50,-46 45,-58 -5,-12 -48,0 -94,30 -46,30 -78,67 -73,79 5,12 28,5 59,-10 0,2 1,5 2,7 30,97 71,166 74,249 20,-13 41,-27 62,-39 -42,-68 -44,-162 -72,-251z" id="path3833" style="fill: rgb(75, 178, 114);"/>
        <path class="fil2" d="M1712 736c3,-1 6,-2 9,-4 0,27 7,43 22,37 15,-7 37,-47 45,-89 8,-42 -3,-70 -19,-64 -16,6 -28,29 -38,59 -3,0 -6,2 -10,3 -122,47 -220,108 -302,133 0,21 0,41 1,61 90,-67 183,-91 292,-136z" id="path3835" style="fill: rgb(75, 178, 114);"/>
        <path class="fil3" d="M852 716c55,-3 79,65 57,149 -17,85 -67,154 -117,156 -50,2 -84,-63 -71,-147 16,-84 76,-155 131,-159z" id="path3837" style="fill: rgb(254, 254, 254);"/>
        <path class="fil4" d="M857 804c37,-2 55,47 42,107 -10,60 -45,109 -80,110 -36,1 -60,-46 -51,-105 11,-60 52,-110 90,-112z" id="path3839" style="fill: rgb(91, 91, 91);"/>
        <path class="fil3" d="M1225 722c-55,-3 -125,64 -151,149 -20,85 9,156 60,158 50,1 104,-66 129,-149 32,-84 17,-154 -38,-157z" id="path3841" style="fill: rgb(254, 254, 254);"/>
        <path class="fil4" d="M1174 793c-41,-2 -91,49 -109,114 -14,65 10,119 48,120 38,1 78,-50 94,-115 21,-64 8,-118 -33,-120z" id="path3843" style="fill: rgb(91, 91, 91);"/>
        <path class="fil5" d="M818 1476c84,-141 217,-162 440,-9 22,15 49,30 62,54 0,0 0,0 0,0 13,24 11,52 -12,45 -320,-104 -386,-52 -461,-3 -15,10 -43,-20 -51,-44 0,0 0,0 0,0 -7,-23 13,-27 23,-43z" id="path3845" style="fill: rgb(67, 66, 66);"/>
        <path class="fil6" d="M864 1416c67,-76 162,-84 312,5 14,9 30,10 36,23 0,0 0,0 0,0 6,13 1,29 -15,24 -212,-59 -262,-31 -318,-5 -11,5 -29,-11 -33,-24 0,0 0,0 0,0 -4,-13 10,-15 18,-23z" id="path3847" style="fill: rgb(235, 236, 236);"/>
        <path class="fil7" d="M515 1366c-32,-1 -63,2 -93,9 -35,9 -59,13 -69,12 -25,-2 -41,-16 -48,-43 -10,-38 3,-62 40,-72 58,-15 114,16 170,93z" id="path3849" style="fill: rgb(176, 203, 31);"/>
        <path class="fil7" d="M556 1381c-44,-1 -87,3 -130,13 -49,12 -82,18 -97,17 -34,-3 -56,-23 -66,-59 -14,-53 4,-87 55,-101 80,-21 159,22 237,130z" id="path3851" style="fill: rgb(176, 203, 31);"/>
        <path class="fil7" d="M805 1530c-32,-1 -63,2 -93,9 -35,9 -59,12 -70,11 -25,-1 -40,-15 -48,-43 -10,-38 4,-61 41,-71 57,-15 113,16 169,94z" id="path3853" style="fill: rgb(176, 203, 31);"/>
        <path class="fil4" d="M188 861c-18,66 -15,132 10,198 -8,-47 -5,-96 9,-148 13,-48 34,-91 61,-128 33,-45 70,-72 112,-80 -48,2 -89,17 -122,45 -34,28 -57,66 -70,113z" id="path3855" style="fill: rgb(91, 91, 91);"/>
        <path class="fil4" d="M3383 1012c24,101 65,184 125,250 -34,-55 -61,-121 -79,-201 -17,-74 -26,-146 -25,-217 0,-86 15,-152 44,-198 -38,42 -62,95 -73,160 -11,65 -8,133 9,204z" id="path3857" style="fill: rgb(91, 91, 91);"/>
        <path class="fil8" d="M1410 1184c9,79 42,149 99,210 -30,-47 -48,-102 -56,-164 -7,-58 -4,-113 10,-165 16,-63 44,-109 86,-137 -51,23 -89,58 -112,103 -24,45 -32,96 -26,153z" id="path3859" style="fill: rgb(18, 120, 70);"/>
        <path class="fil4" d="M108 820c-23,82 -19,164 11,247 -10,-58 -6,-120 12,-185 17,-60 42,-114 76,-160 41,-56 88,-90 140,-101 -60,2 -111,21 -154,57 -41,34 -70,81 -86,140z" id="path3861" style="fill: rgb(91, 91, 91);"/>
        <path class="fil4" d="M3294 1025c30,125 81,230 155,313 -42,-68 -75,-151 -99,-250 -22,-92 -32,-183 -32,-271 0,-108 19,-190 55,-247 -48,53 -78,120 -91,202 -13,79 -9,164 12,254z" id="path3863" style="fill: rgb(91, 91, 91);"/>
        <path class="fil4" d="M18 777c-28,102 -24,206 14,310 -12,-73 -7,-150 15,-231 21,-75 53,-142 95,-200 52,-70 110,-112 175,-126 -75,3 -139,27 -192,71 -51,44 -87,102 -108,176z" id="path3865" style="fill: rgb(91, 91, 91);"/>
        <path class="fil4" d="M3196 1043c37,157 102,287 194,391 -53,-85 -94,-190 -124,-314 -27,-116 -41,-229 -40,-340 1,-134 24,-237 68,-309 -59,66 -97,150 -114,252 -16,99 -11,206 16,319z" id="path3867" style="fill: rgb(91, 91, 91);"/>
        <path class="fil9" d="M1789 532c-5,14 -5,31 -5,45 -1,38 13,73 36,103 16,21 50,30 74,36 39,9 79,12 119,13 -11,11 -23,13 -38,15 -19,3 -39,7 -58,10 -42,7 -84,15 -126,22 -31,5 -61,19 -91,29 -32,10 -61,28 -91,42 -50,25 -79,69 -99,121 -31,83 -38,171 -28,259 9,83 36,164 77,237 16,29 34,59 60,81 24,21 52,35 81,46 68,24 140,26 211,27 33,0 63,-1 96,-5 37,-5 75,-7 112,-14 34,-6 68,-16 101,-23 138,-32 272,-75 407,-118 30,-10 60,-19 90,-29 13,-4 32,-7 45,-3 31,9 62,8 94,4 68,-8 137,-21 204,-37 18,-4 34,-10 51,-17 14,-6 22,-10 29,-25 8,-21 10,-44 11,-66 2,-37 0,-74 -2,-111 -5,-80 -17,-159 -32,-238 -7,-35 -14,-68 -23,-103 -8,-30 -21,-71 -46,-91 -13,-10 -33,-7 -48,-7 -24,-1 -47,-1 -71,-2 -31,-1 -62,3 -93,5 -53,4 -105,4 -154,29 -12,6 -16,8 -29,7 -11,0 -23,-1 -34,-1 -16,-1 -33,-9 -48,-13 -15,-4 -29,-15 -42,-23 -13,-8 -20,-13 -29,-26 -23,-30 -42,-62 -61,-94 -32,-54 -88,-90 -145,-113 -62,-25 -126,-46 -190,-61 -28,-7 -56,-14 -83,-20 -16,-4 -34,-8 -50,-8 -26,1 -54,-2 -80,4 -56,13 -87,62 -99,115z" id="path3869" style="fill: rgb(43, 42, 41); fill-rule: nonzero;"/>
        <path class="fil10" d="M2856 1430c68,-8 137,-21 204,-37 18,-4 34,-10 51,-17 14,-6 22,-10 29,-25 8,-21 10,-44 11,-66 2,-37 0,-74 -2,-111 -5,-80 -17,-159 -32,-238 -7,-35 -14,-68 -23,-103 -8,-30 -21,-71 -46,-91 -13,-10 -33,-7 -48,-7 -24,-1 -47,-1 -71,-2 -31,-1 -62,3 -93,5 14,-94 243,690 21,693z" id="path3871" style="fill: rgb(137, 137, 137); fill-rule: nonzero;"/>
        <path class="fil11 str0" d="M1563 925c-78,83 -50,201 -18,231 32,30 19,-80 96,-163 78,-83 217,-107 185,-137 -32,-30 -185,-14 -263,69z" id="path3873" style="fill: rgb(137, 137, 137); stroke: rgb(43, 42, 41); stroke-width: 2.36229px;"/>
        <path class="fil2" d="M1699 1371c3,1 5,1 8,1 19,32 39,56 54,59 15,3 9,-30 -11,-75 -20,-45 -42,-85 -55,-88 -13,-3 -15,16 -11,44 -3,-1 -5,-2 -8,-3 -102,-28 -181,-30 -255,-65 1,22 5,44 9,66 79,-3 170,38 269,62z" id="path3875" style="fill: rgb(75, 178, 114);"/>
        <path class="fil12" d="M1862 801l-154 279 132 15 -108 106 123 132 -240 91 127 74 -103 48 147 253 -222 -143 20 180 -90 -128 -79 169 -15 -238 -178 157 154 -278 -198 -22 178 -157 -128 -74 169 -40 -171 -374 156 136 13 -176 57 125 116 -224 11 297 281 -205 0 0zm-70 103l-122 221 105 12 -85 84 98 105 -190 72 101 58 -82 38 117 201 -176 -114 16 142 -71 -102 -63 134 -12 -189 -141 125 122 -221 -157 -18 141 -125 -101 -58 134 -32 -136 -297 124 108 10 -140 45 99 92 -177 9 235 223 -162 0 0z" id="path3877" style="fill: rgb(227, 30, 36);"/>
      </g>
    </g>
  </g>
</svg>